<svg width="64" height="64" viewBox="0 0 64 64" fill="none" xmlns="http://www.w3.org/2000/svg">
<path fill-rule="evenodd" clip-rule="evenodd" d="M59 43H5V35C5 34.448 4.552 34 4 34C3.448 34 3 34.448 3 35V48C3 48.796 3.316 49.559 3.879 50.121C4.441 50.684 5.204 51 6 51H10C10.552 51 11 50.552 11 50C11 49.448 10.552 49 10 49H6C5.735 49 5.48 48.895 5.293 48.707C5.105 48.52 5 48.265 5 48V45H59V48C59 48.265 58.895 48.52 58.707 48.707C58.52 48.895 58.265 49 58 49H14C13.448 49 13 49.448 13 50C13 50.552 13.448 51 14 51H26.606C26.446 53.682 25.751 57.147 23.189 59H21.5C20.948 59 20.5 59.448 20.5 60C20.5 60.552 20.948 61 21.5 61H42.5C43.052 61 43.5 60.552 43.5 60C43.5 59.448 43.052 59 42.5 59H40.811C38.249 57.146 37.554 53.682 37.394 51H58C58.796 51 59.559 50.684 60.121 50.121C60.684 49.559 61 48.796 61 48C61 41.972 61 24.028 61 18C61 17.204 60.684 16.441 60.121 15.879C59.559 15.316 58.796 15 58 15H48C47.448 15 47 15.448 47 16C47 16.552 47.448 17 48 17H58C58.265 17 58.52 17.105 58.707 17.293C58.895 17.48 59 17.735 59 18V43ZM35.394 51H28.606C28.451 53.531 27.821 56.68 26.021 59H37.979C36.179 56.68 35.549 53.53 35.394 51ZM15 39H9C8.448 39 8 39.448 8 40C8 40.552 8.448 41 9 41H15C15 41.552 15.448 42 16 42C16.552 42 17 41.552 17 41H55C55.552 41 56 40.552 56 40C56 39.448 55.552 39 55 39H17C17 38.448 16.552 38 16 38C15.448 38 15 38.448 15 39ZM43 21H21C19.343 21 18 22.343 18 24C18 26.871 18 32.129 18 35C18 36.657 19.343 38 21 38H43C44.657 38 46 36.657 46 35C46 32.129 46 26.871 46 24C46 22.343 44.657 21 43 21ZM43 23C43.552 23 44 23.448 44 24V35C44 35.552 43.552 36 43 36H21C20.448 36 20 35.552 20 35V24C20 23.448 20.448 23 21 23H43ZM36.467 30.384C36.795 30.211 37 29.871 37 29.5C37 29.129 36.795 28.789 36.467 28.616L29.842 25.116C29.532 24.952 29.159 24.963 28.859 25.144C28.559 25.324 28.375 25.649 28.375 26V33C28.375 33.351 28.559 33.676 28.859 33.856C29.159 34.037 29.532 34.048 29.842 33.884L36.467 30.384ZM16 15H6C5.204 15 4.441 15.316 3.879 15.879C3.316 16.441 3 17.204 3 18C3 20.509 3 26.581 3 31.5C3 32.052 3.448 32.5 4 32.5C4.552 32.5 5 32.052 5 31.5V18C5 17.735 5.105 17.48 5.293 17.293C5.48 17.105 5.735 17 6 17H16C16.552 17 17 16.552 17 16C17 15.448 16.552 15 16 15ZM33.859 29.5L30.375 31.341V27.659L33.859 29.5ZM20.537 9.11401C20.538 9.11301 31.521 3.12201 31.521 3.12201C31.82 2.95901 32.18 2.95901 32.479 3.12201L43.479 9.12201C43.8 9.29701 44 9.63401 44 10C44 10.366 43.8 10.703 43.479 10.878L40 12.775V17C40 18.657 38.657 20 37 20H27C25.343 20 24 18.657 24 17V12.775L22 11.685V17C22 17.552 21.552 18 21 18C20.448 18 20 17.552 20 17V10C20 9.61501 20.218 9.28101 20.537 9.11401ZM38 13.866L32.479 16.878C32.18 17.041 31.82 17.041 31.521 16.878L26 13.866V17C26 17.552 26.448 18 27 18H37C37.552 18 38 17.552 38 17V13.866ZM24.922 9.00001H29C29.552 9.00001 30 9.44801 30 10C30 10.552 29.552 11 29 11H24.922L32 14.861L40.912 10L32 5.13901L24.922 9.00001Z" fill="#FDA31B"/>
</svg>
